# xmcd
#
# Track frame offsets:
#	150
#	14705
#	28900
#	43769
#	57485
#	73264
#	89539
#	104877
#	118546
#	134653
#	148397
#	161344
#	175501
#	191167
#	208309
#
# Disc length: 2959 seconds
#
# Revision: 1
# Processed by: cddbd v1.5.2PL0 Copyright (c) Steve Scherf et al.
# Submitted via: audiograbber 1.83.01
#
DISCID=f70b8d0f
DTITLE=Brett Williams - Rolling Down The Road Brett Williams
DYEAR=1900
DGENRE=
TTITLE0=Rolling Down The Road
TTITLE1=Waiting For When
TTITLE2=Boots In The Hall
TTITLE3=Cigares And Beer
TTITLE4=I Like It
TTITLE5=I Fly Away
TTITLE6=My Imaginary Friend
TTITLE7=That´s Entertains Me
TTITLE8=The Wedding Song (our History)
TTITLE9=Same Rules, Different Game
TTITLE10=Who Is Letf To Weep For Them
TTITLE11=Kicking On A Dream
TTITLE12=Treasure Of My Life
TTITLE13=Darling
TTITLE14=Wondering
EXTD=
EXTT0=
EXTT1=
EXTT2=
EXTT3=
EXTT4=
EXTT5=
EXTT6=
EXTT7=
EXTT8=
EXTT9=
EXTT10=
EXTT11=
EXTT12=
EXTT13=
EXTT14=
PLAYORDER=
